<mxfile host="app.diagrams.net" modified="2023-07-02T16:17:04.862Z" agent="Mozilla/5.0 (Windows NT 10.0; Win64; x64) AppleWebKit/537.36 (KHTML, like Gecko) Chrome/112.0.0.0 YaBrowser/23.5.3.904 Yowser/2.5 Safari/537.36" version="21.5.2" etag="BGTJ73EuIajyu2T2lXph" type="github">
  <diagram name="Страница 1" id="PfBkOUT5i2RRQd7WSKXh">
    <mxGraphModel>
      <root>
        <mxCell id="0" />
        <mxCell id="1" parent="0" />
      </root>
    </mxGraphModel>
  </diagram>
</mxfile>
